<?xml version="1.0" encoding="UTF-8"?>
<svg id="Layer_1" data-name="Layer 1" xmlns="http://www.w3.org/2000/svg" width="1200" height="1200" xmlns:xlink="http://www.w3.org/1999/xlink" viewBox="0 0 1200 1200">
  <defs>
    <linearGradient id="linear-gradient" x1="873.26" y1="582.45" x2="991.11" y2="1072.26" gradientUnits="userSpaceOnUse">
      <stop offset=".38" stop-color="#d4d8df"/>
      <stop offset="1" stop-color="#4c5366"/>
    </linearGradient>
    <linearGradient id="linear-gradient-2" x1="596.65" y1="689.5" x2="902.32" y2="858.91" gradientUnits="userSpaceOnUse">
      <stop offset="0" stop-color="#9da8c4"/>
      <stop offset=".57" stop-color="#4f5669"/>
      <stop offset="1" stop-color="#272e3d"/>
    </linearGradient>
    <linearGradient id="linear-gradient-3" x1="848.24" y1="698.66" x2="922.27" y2="698.66" xlink:href="#linear-gradient-2"/>
    <linearGradient id="linear-gradient-4" x1="693.56" y1="852.31" x2="794.53" y2="673.18" xlink:href="#linear-gradient-2"/>
    <linearGradient id="linear-gradient-5" x1="647.67" y1="871.92" x2="744.55" y2="871.92" gradientUnits="userSpaceOnUse">
      <stop offset=".09" stop-color="#727c92"/>
      <stop offset="1" stop-color="#4c5366"/>
    </linearGradient>
    <linearGradient id="linear-gradient-6" x1="677.3" y1="1040.73" x2="818.26" y2="1040.73" xlink:href="#linear-gradient-5"/>
    <linearGradient id="linear-gradient-7" x1="897.32" y1="778.7" x2="759.4" y2="911.22" xlink:href="#linear-gradient-2"/>
    <linearGradient id="linear-gradient-8" x1="726.54" y1="657.48" x2="764.02" y2="819.91" gradientUnits="userSpaceOnUse">
      <stop offset="0" stop-color="#9da8c4"/>
      <stop offset=".69" stop-color="#4f5669"/>
      <stop offset="1" stop-color="#272e3d"/>
    </linearGradient>
    <linearGradient id="linear-gradient-9" x1="859.61" y1="1143.68" x2="841.86" y2="1068.25" xlink:href="#linear-gradient-2"/>
    <linearGradient id="linear-gradient-10" x1="892.7" y1="1000.82" x2="923.6" y2="1104.77" xlink:href="#linear-gradient-2"/>
    <linearGradient id="linear-gradient-11" x1="1132.72" y1="896.22" x2="1105.03" y2="987.41" xlink:href="#linear-gradient-2"/>
    <linearGradient id="linear-gradient-12" x1="712.53" y1="-53.08" x2="887.95" y2="676" gradientUnits="userSpaceOnUse">
      <stop offset=".38" stop-color="#d4d8df"/>
      <stop offset="1" stop-color="#4c5366"/>
    </linearGradient>
    <linearGradient id="linear-gradient-13" x1="373.36" y1="78.18" x2="748.17" y2="285.91" xlink:href="#linear-gradient-2"/>
    <linearGradient id="linear-gradient-14" x1="681.85" y1="89.41" x2="772.62" y2="89.41" xlink:href="#linear-gradient-2"/>
    <linearGradient id="linear-gradient-15" x1="492.19" y1="277.81" x2="615.99" y2="58.17" gradientUnits="userSpaceOnUse">
      <stop offset=".4" stop-color="#d4d8df"/>
      <stop offset="1" stop-color="#4c5366"/>
    </linearGradient>
    <linearGradient id="linear-gradient-16" x1="403.65" y1="128.46" x2="535.54" y2="377.98" gradientUnits="userSpaceOnUse">
      <stop offset=".43" stop-color="#d4d8df"/>
      <stop offset="1" stop-color="#4c5366"/>
    </linearGradient>
    <linearGradient id="linear-gradient-17" x1="472.25" y1="508.85" x2="645.08" y2="508.85" xlink:href="#linear-gradient-5"/>
    <linearGradient id="linear-gradient-18" x1="742.03" y1="187.56" x2="572.91" y2="350.05" xlink:href="#linear-gradient-2"/>
    <linearGradient id="linear-gradient-19" x1="532.62" y1="38.92" x2="578.58" y2="238.08" xlink:href="#linear-gradient-8"/>
    <linearGradient id="linear-gradient-20" x1="695.79" y1="635.09" x2="674.02" y2="542.59" xlink:href="#linear-gradient-2"/>
    <linearGradient id="linear-gradient-21" x1="736.36" y1="459.91" x2="774.25" y2="587.37" xlink:href="#linear-gradient-2"/>
    <linearGradient id="linear-gradient-22" x1="1030.67" y1="331.65" x2="996.72" y2="443.47" xlink:href="#linear-gradient-2"/>
    <linearGradient id="linear-gradient-23" x1="326.95" y1="409.14" x2="471.45" y2="1009.73" gradientUnits="userSpaceOnUse">
      <stop offset=".39" stop-color="#d4d8df"/>
      <stop offset="1" stop-color="#4c5366"/>
    </linearGradient>
    <linearGradient id="linear-gradient-24" x1="-12.23" y1="540.41" x2="362.59" y2="748.13" xlink:href="#linear-gradient-2"/>
    <linearGradient id="linear-gradient-25" x1="296.26" y1="551.64" x2="387.04" y2="551.64" xlink:href="#linear-gradient-2"/>
    <linearGradient id="linear-gradient-26" x1="106.61" y1="740.04" x2="230.41" y2="520.39" gradientUnits="userSpaceOnUse">
      <stop offset=".4" stop-color="#d4d8df"/>
      <stop offset="1" stop-color="#4c5366"/>
    </linearGradient>
    <linearGradient id="linear-gradient-27" x1="-22.75" y1="645.31" x2="162.12" y2="811.06" gradientUnits="userSpaceOnUse">
      <stop offset=".4" stop-color="#d4d8df"/>
      <stop offset="1" stop-color="#4c5366"/>
    </linearGradient>
    <linearGradient id="linear-gradient-28" x1="86.67" y1="971.08" x2="259.5" y2="971.08" xlink:href="#linear-gradient-5"/>
    <linearGradient id="linear-gradient-29" x1="356.45" y1="649.78" x2="187.33" y2="812.27" xlink:href="#linear-gradient-2"/>
    <linearGradient id="linear-gradient-30" x1="147.04" y1="501.14" x2="193" y2="700.3" xlink:href="#linear-gradient-8"/>
    <linearGradient id="linear-gradient-31" x1="310.21" y1="1097.31" x2="288.44" y2="1004.82" xlink:href="#linear-gradient-2"/>
    <linearGradient id="linear-gradient-32" x1="350.78" y1="922.14" x2="388.67" y2="1049.59" xlink:href="#linear-gradient-2"/>
    <linearGradient id="linear-gradient-33" x1="645.09" y1="793.87" x2="611.14" y2="905.69" xlink:href="#linear-gradient-2"/>
  </defs>
  <g>
    <path d="m1143.12,962.53l6.55-76.16-57.93-26.92-9.5-17.25,37.84-57-44.28-58.64-67.64,21.57-5.4-.49-10.26-72.12-70.21-11.52-16.54,64.37-5.9,4.97-61.53-49.19-53.18,44.77,32.92,63.11-.93,10.86-72.56,15.67-.66,71.19,52.52,26.42,3.06,27.68-25.99,47.06,44.77,53.18,67.59-21.57,5.46.49,3.82,82.49,76.16,6.61,16.49-64.37,11.36-4.48,50.67,48.21,59.07-49.74-33.36-57.65,6.82-15.83,60.77-5.73Zm-283.14-84.68c1.42-16.32,6.61-31.23,14.47-43.95l-.27,2.46s85.5,41.33,54.65,138.95l5.57,2.02c-45.59-5.02-78.73-49.14-74.41-99.47Z" style="fill: url(#linear-gradient);"/>
    <path d="m1028.63,892.38c-4.42,51.05-45.75,89.21-92.32,85.22-.66-.11-1.31-.16-1.91-.27l-5.57-2.02c30.85-97.62-54.65-138.95-54.65-138.95l.27-2.46c16.82-27.19,46.13-44,77.8-41.27,46.57,4.04,80.75,48.64,76.38,99.75Z" style="fill: url(#linear-gradient-2);"/>
    <polygon points="922.27 664.01 848.24 689.45 899.85 733.31 905.18 732.08 922.27 664.01" style="fill: url(#linear-gradient-3);"/>
    <polygon points="838.33 684.17 739.16 722.2 691.42 767.4 785.16 728.91 838.33 684.17" style="fill: url(#linear-gradient-4);"/>
    <polygon points="744.55 818.56 648.32 854.1 647.67 925.28 743.89 889.74 744.55 818.56" style="fill: url(#linear-gradient-5);"/>
    <polygon points="773.52 990.94 677.3 1026.48 721.1 1090.53 818.26 1044.11 773.52 990.94" style="fill: url(#linear-gradient-6);"/>
    <polygon points="647.67 925.28 705.62 952.2 714.63 974.9 677.3 1026.48 773.52 990.94 799.5 943.86 796.41 916.19 743.89 889.74 647.67 925.28" style="fill: url(#linear-gradient-7);"/>
    <polygon points="691.42 767.4 716.41 827.1 744.55 818.56 817.13 802.9 818.07 792.02 785.16 728.91 691.42 767.4" style="fill: url(#linear-gradient-8);"/>
    <polygon points="780.58 1063.25 793.68 1074.87 804.37 1141.55 895.16 1105.54 891.31 1023.01 885.87 1022.54 818.26 1044.11 780.58 1063.25" style="fill: url(#linear-gradient-9);"/>
    <polygon points="1049.81 1091.48 953.58 1127.02 948.61 1121.11 874.62 1153.09 804.37 1141.55 898.12 1104.74 971.31 1112.11 987.82 1047.77 999.16 1043.27 1049.81 1091.48" style="fill: url(#linear-gradient-10);"/>
    <polygon points="1075.5 984.09 1143.12 962.53 1082.35 968.24 1075.5 984.09" style="fill: url(#linear-gradient-11);"/>
    <path d="m1043.42,412.96l8.03-93.39-71.03-33-11.65-21.15,46.39-69.89-54.29-71.9-82.94,26.44-6.63-.6-12.59-88.43-86.09-14.13-20.28,78.93-7.23,6.09-75.45-60.32-65.2,54.89,40.37,77.39-1.14,13.32-88.97,19.21-.8,87.29,64.4,32.4,3.75,33.94-31.87,57.71,54.89,65.2,82.88-26.44,6.69.6,4.69,101.15,93.39,8.1,20.22-78.93,13.92-5.49,62.12,59.11,72.43-60.99-40.9-70.69,8.37-19.41,74.51-7.03Zm-347.17-103.83c1.74-20.02,8.1-38.29,17.74-53.89l-.34,3.01s104.83,50.68,67.01,170.37l6.83,2.48c-55.9-6.16-96.53-60.25-91.24-121.97Z" style="fill: url(#linear-gradient-12);"/>
    <path d="m903.04,326.94c-5.42,62.59-56.1,109.39-113.2,104.5-.8-.13-1.61-.2-2.34-.33l-6.83-2.48c37.82-119.7-67.01-170.37-67.01-170.37l.34-3.01c20.62-33.34,56.57-53.96,95.4-50.61,57.1,4.95,99.01,59.65,93.65,122.31Z" style="fill: url(#linear-gradient-13);"/>
    <polygon points="772.62 46.92 681.85 78.12 745.14 131.9 751.66 130.39 772.62 46.92" style="fill: url(#linear-gradient-14);"/>
    <polygon points="669.7 71.64 548.09 118.27 489.56 173.7 604.5 126.5 669.7 71.64" style="fill: url(#linear-gradient-15);"/>
    <polygon points="554.7 236.43 436.72 280.01 435.91 367.29 553.9 323.71 554.7 236.43" style="fill: url(#linear-gradient-16);"/>
    <polygon points="590.23 447.79 472.25 491.37 525.95 569.91 645.08 512.99 590.23 447.79" style="fill: url(#linear-gradient-17);"/>
    <polygon points="435.91 367.29 506.98 400.3 518.02 428.12 472.25 491.37 590.23 447.79 622.09 390.06 618.29 356.14 553.9 323.71 435.91 367.29" style="fill: url(#linear-gradient-18);"/>
    <polygon points="489.56 173.7 520.21 246.89 554.7 236.43 643.71 217.23 644.86 203.89 604.5 126.5 489.56 173.7" style="fill: url(#linear-gradient-19);"/>
    <polygon points="598.89 536.45 614.96 550.71 628.06 632.47 739.38 588.32 734.67 487.12 728 486.55 645.08 512.99 598.89 536.45" style="fill: url(#linear-gradient-20);"/>
    <polygon points="929 571.07 811.02 614.65 804.93 607.41 714.19 646.62 628.06 632.47 743.01 587.33 832.75 596.37 852.99 517.48 866.91 511.96 929 571.07" style="fill: url(#linear-gradient-21);"/>
    <polygon points="960.52 439.4 1043.43 412.95 968.91 419.97 960.52 439.4" style="fill: url(#linear-gradient-22);"/>
    <path d="m657.84,875.19l8.03-93.39-71.03-33-11.65-21.15,46.39-69.89-54.29-71.9-82.94,26.44-6.63-.6-12.59-88.43-86.09-14.13-20.28,78.93-7.23,6.09-75.45-60.32-65.2,54.89,40.37,77.39-1.14,13.32-88.97,19.21-.8,87.29,64.4,32.4,3.75,33.94-31.87,57.71,54.89,65.2,82.88-26.44,6.69.6,4.69,101.15,93.39,8.1,20.22-78.93,13.92-5.49,62.12,59.11,72.43-60.99-40.9-70.69,8.37-19.41,74.51-7.03Zm-347.17-103.83c1.74-20.02,8.1-38.29,17.74-53.89l-.34,3.01s104.83,50.68,67.01,170.37l6.83,2.48c-55.9-6.16-96.53-60.25-91.24-121.97Z" style="fill: url(#linear-gradient-23);"/>
    <path d="m517.46,789.16c-5.42,62.59-56.1,109.39-113.2,104.5-.8-.13-1.61-.2-2.34-.33l-6.83-2.48c37.82-119.7-67.01-170.37-67.01-170.37l.34-3.01c20.62-33.34,56.57-53.96,95.4-50.61,57.1,4.95,99.01,59.65,93.65,122.31Z" style="fill: url(#linear-gradient-24);"/>
    <polygon points="387.04 509.15 296.26 540.35 359.55 594.13 366.08 592.61 387.04 509.15" style="fill: url(#linear-gradient-25);"/>
    <polygon points="284.12 533.87 162.51 580.5 103.98 635.92 218.92 588.72 284.12 533.87" style="fill: url(#linear-gradient-26);"/>
    <polygon points="169.12 698.65 51.14 742.23 50.33 829.52 168.32 785.93 169.12 698.65" style="fill: url(#linear-gradient-27);"/>
    <polygon points="204.65 910.01 86.67 953.59 140.37 1032.14 259.5 975.22 204.65 910.01" style="fill: url(#linear-gradient-28);"/>
    <polygon points="50.33 829.52 121.4 862.52 132.44 890.35 86.67 953.59 204.65 910.01 236.51 852.29 232.71 818.36 168.32 785.93 50.33 829.52" style="fill: url(#linear-gradient-29);"/>
    <polygon points="103.98 635.92 134.62 709.12 169.12 698.65 258.13 679.45 259.28 666.11 218.92 588.72 103.98 635.92" style="fill: url(#linear-gradient-30);"/>
    <polygon points="213.31 998.68 229.37 1012.93 242.48 1094.7 353.8 1050.54 349.08 949.34 342.41 948.77 259.5 975.22 213.31 998.68" style="fill: url(#linear-gradient-31);"/>
    <polygon points="543.42 1033.29 425.44 1076.87 419.34 1069.63 328.61 1108.84 242.48 1094.7 357.43 1049.55 447.17 1058.59 467.41 979.7 481.33 974.19 543.42 1033.29" style="fill: url(#linear-gradient-32);"/>
    <polygon points="574.93 901.63 657.85 875.18 583.33 882.19 574.93 901.63" style="fill: url(#linear-gradient-33);"/>
  </g>
  <g id="Artwork_35" data-name="Artwork 35" style="opacity: .6;">
    <g>
      <path id="cloud" d="m965.5,1060.98c-.41-5.42-4.68-9.98-10.33-10.62l-2.05-.23c-.67-7.76-6.68-14.06-14.51-14.95s-15.14,3.93-17.52,11.37c-5.87-.04-10.97,4.33-11.64,10.24-.72,6.34,3.9,12.08,10.29,12.81l17.17,1.95c.9.07,1.71-.61,1.77-1.52.07-.86-.54-1.63-1.4-1.75l-17.17-1.95c-4.58-.52-7.89-4.63-7.38-9.15.51-4.52,4.66-7.78,9.24-7.26,1.69.18,3.29.89,4.56,2.04.6.55,1.51.58,2.14.08h0c.71-.56.83-1.59.27-2.3h0c-.06-.08-.12-.14-.18-.21-1.26-1.13-2.75-1.97-4.36-2.46,2.06-5.67,7.73-9.29,13.82-8.59,6.45.73,11.35,6.06,11.62,12.53-.54.21-1.08.45-1.59.73-.8.44-1.09,1.45-.66,2.25.05.08.09.16.16.23h0c.5.63,1.4.8,2.1.4,1.49-.83,3.21-1.16,4.9-.96,4.05.46,7.09,3.71,7.4,7.58.06.79.67,1.43,1.46,1.52h0c.9.11,1.72-.53,1.83-1.44h0c.03-.1.05-.22.04-.33Z" style="fill: #fff;"/>
      <g id="numbers">
        <path d="m943.81,1069.63l-1.41-.16.44-3.87.08-.63.1-.69c-.18.14-.36.27-.54.4l-.84.53-.59-.92,2.35-1.47,1.16.13-.74,6.67Z" style="fill: #fff;"/>
        <path d="m950.68,1067.03c-.13,1.17-.42,2.01-.87,2.53s-1.07.72-1.86.63-1.32-.44-1.65-1.07-.43-1.5-.3-2.63.43-2.02.86-2.55,1.06-.73,1.85-.64,1.32.44,1.65,1.08c.35.64.45,1.51.32,2.64Zm-3.27-.37c-.09.81-.08,1.41.01,1.79s.32.58.66.62.59-.12.78-.45.32-.92.41-1.74.09-1.42-.02-1.79-.32-.58-.65-.62-.59.12-.78.45-.32.92-.41,1.74Z" style="fill: #fff;"/>
        <path d="m942.66,1079.77l-1.41-.16.44-3.87.08-.63.1-.69c-.18.14-.36.27-.54.4l-.84.53-.59-.92,2.35-1.47,1.16.13-.74,6.67Z" style="fill: #fff;"/>
        <path d="m948,1080.38l-1.41-.16.44-3.87.08-.63.1-.69c-.18.14-.36.27-.54.4l-.84.53-.59-.92,2.35-1.47,1.16.13-.76,6.67h.02Z" style="fill: #fff;"/>
        <path d="m953.35,1080.99l-1.41-.16.44-3.87.08-.63.1-.69c-.18.14-.36.27-.54.4l-.84.53-.59-.92,2.35-1.47,1.16.13-.74,6.67Z" style="fill: #fff;"/>
        <path d="m960.21,1078.38c-.13,1.17-.42,2.01-.87,2.53s-1.07.74-1.86.65c-.77-.09-1.32-.44-1.65-1.07s-.43-1.5-.3-2.64.43-2.02.86-2.55,1.06-.73,1.85-.64,1.32.44,1.65,1.08c.35.63.46,1.51.32,2.64Zm-3.27-.37c-.09.81-.08,1.41.01,1.79s.31.58.66.62.59-.12.78-.45.32-.92.41-1.73.09-1.42-.02-1.79-.32-.58-.65-.62-.59.12-.78.45-.32.91-.41,1.73Z" style="fill: #fff;"/>
        <path d="m962.35,1086.75c-.1.85-.31,1.46-.63,1.84s-.78.53-1.35.46-.96-.33-1.19-.78-.31-1.09-.22-1.91.31-1.47.63-1.85c.32-.38.78-.53,1.35-.46s.96.33,1.2.79.31,1.1.21,1.91Zm-2.38-.27c-.07.6-.06,1.03,0,1.3.04.24.23.42.48.45s.42-.08.56-.34.24-.67.31-1.26.06-1.03-.01-1.3-.23-.43-.47-.45-.43.08-.56.34-.24.67-.31,1.27h0Z" style="fill: #fff;"/>
        <path d="m965.14,1089.53l-1.03-.12.32-2.82.06-.46.08-.5c-.19.15-.32.25-.39.29l-.61.39-.42-.68,1.7-1.06.85.1-.55,4.86h-.01Z" style="fill: #fff;"/>
        <path d="m941.82,1084.47c-.09.84-.3,1.43-.62,1.8s-.76.52-1.33.46-.94-.31-1.17-.76-.3-1.06-.21-1.87.3-1.44.62-1.81.75-.52,1.32-.46.94.31,1.17.76.31,1.08.22,1.88Zm-2.32-.26c-.07.58-.06,1.01,0,1.27.04.23.23.42.47.43.24.03.42-.08.55-.33s.24-.66.3-1.23.06-1.01-.02-1.27-.22-.42-.46-.44-.42.08-.55.33-.25.66-.3,1.25h0Z" style="fill: #fff;"/>
        <path d="m944.55,1087.19l-1.01-.11.31-2.75.06-.45.08-.49c-.19.15-.31.25-.38.29l-.6.38-.41-.67,1.67-1.05.82.09-.55,4.75Z" style="fill: #fff;"/>
        <path d="m949.43,1085.34c-.09.84-.3,1.43-.62,1.8s-.76.52-1.33.46-.94-.31-1.17-.76-.3-1.06-.21-1.87.3-1.44.62-1.81.75-.52,1.32-.46.94.31,1.17.76.31,1.08.22,1.88Zm-2.32-.26c-.07.58-.06,1.01,0,1.27.04.23.23.42.47.43.25.03.42-.08.55-.33s.24-.66.3-1.23.06-1.01-.02-1.27-.23-.42-.46-.44-.42.08-.55.33-.25.66-.3,1.25h0Z" style="fill: #fff;"/>
        <path d="m952.15,1088.05l-1.01-.11.31-2.75.06-.45.08-.49c-.19.15-.32.25-.39.29l-.6.38-.41-.67,1.67-1.05.82.09-.54,4.75Z" style="fill: #fff;"/>
        <path d="m940.13,1090.42c-.07.6-.21,1.03-.44,1.29s-.54.37-.96.32c-.36-.02-.68-.23-.84-.55-.17-.32-.22-.77-.15-1.35.07-.61.22-1.04.44-1.31s.54-.37.95-.33c.36.02.68.23.85.55.16.33.21.78.15,1.36Zm-1.68-.19c-.05.42-.05.72,0,.91.03.21.22.34.43.31h.01c.13-.02.24-.1.29-.23.1-.17.16-.47.21-.89.05-.31.05-.62-.01-.92-.03-.2-.22-.34-.42-.32h-.02c-.13.02-.24.1-.29.23-.11.3-.18.6-.2.91Z" style="fill: #fff;"/>
        <path d="m942.09,1092.38l-.73-.08.23-1.98.05-.32.05-.35c-.13.1-.23.18-.27.21l-.43.27-.3-.47,1.2-.75.59.07-.38,3.42Z" style="fill: #fff;"/>
        <path d="m949.16,1095.77c-.07.6-.21,1.03-.45,1.29s-.55.37-.96.32c-.36-.02-.68-.23-.84-.55-.17-.32-.22-.77-.15-1.35s.22-1.04.44-1.31.54-.37.95-.33c.36.02.68.23.85.55.18.33.23.78.16,1.36Zm-1.67-.19c-.05.42-.05.72,0,.91.03.2.22.34.42.32h.02c.13-.02.24-.1.29-.23.1-.17.16-.47.21-.89.05-.31.05-.62-.01-.92-.02-.17-.16-.3-.33-.32s-.33.07-.4.24c-.08.16-.15.46-.2.89Z" style="fill: #fff;"/>
        <path d="m951.13,1097.73l-.73-.08.23-1.98.05-.32.05-.35c-.13.1-.23.18-.27.21l-.43.28-.3-.48,1.2-.75.6.07-.39,3.42Z" style="fill: #fff;"/>
        <path d="m957.57,1091.73c-.09.84-.3,1.43-.62,1.8s-.76.52-1.33.46c-.55-.06-.94-.31-1.17-.76s-.3-1.06-.21-1.87.3-1.44.62-1.81.75-.52,1.32-.46.94.31,1.17.76.31,1.08.22,1.88Zm-2.32-.26c-.07.59-.06,1.01,0,1.27.04.23.23.42.47.43.24.03.42-.08.55-.33s.24-.66.3-1.23.06-1.01-.02-1.28-.23-.42-.47-.44-.42.08-.55.33-.23.68-.29,1.26h0Z" style="fill: #fff;"/>
        <path d="m960.3,1094.45l-1.01-.11.31-2.75.06-.45.08-.49c-.19.15-.31.25-.38.29l-.6.38-.41-.67,1.67-1.05.82.09-.54,4.75h-.01Z" style="fill: #fff;"/>
        <path d="m965.18,1092.59c-.09.84-.3,1.43-.62,1.8s-.76.52-1.33.46-.94-.31-1.17-.76-.3-1.06-.21-1.87.3-1.44.62-1.81.75-.52,1.32-.46.94.31,1.17.76.31,1.08.22,1.88Zm-2.32-.26c-.07.59-.06,1.01,0,1.27.04.23.23.42.47.43.24.03.42-.08.55-.33s.24-.66.3-1.23.06-1.01-.02-1.28-.23-.42-.46-.44-.42.08-.55.33-.24.68-.31,1.26h0Z" style="fill: #fff;"/>
        <path d="m960.18,1071.49l-1.41-.16.44-3.87.08-.63.1-.69c-.18.14-.36.27-.54.4l-.84.53-.59-.92,2.35-1.47,1.17.13-.76,6.67h.01Z" style="fill: #fff;"/>
        <path d="m967.05,1068.89c-.13,1.17-.42,2.01-.87,2.53s-1.07.72-1.86.63-1.32-.44-1.65-1.07-.43-1.5-.3-2.63.43-2.02.86-2.55,1.06-.73,1.85-.64,1.32.44,1.65,1.08.44,1.51.32,2.64Zm-3.28-.37c-.09.81-.08,1.41.01,1.79s.32.58.66.62.59-.12.78-.45.32-.92.41-1.74.09-1.42-.02-1.79-.32-.58-.65-.62-.59.12-.78.45-.32.92-.41,1.74h0Z" style="fill: #fff;"/>
      </g>
    </g>
  </g>
</svg>