<?xml version="1.0" encoding="utf-8"?>
<!-- Generator: Adobe Illustrator 25.2.3, SVG Export Plug-In . SVG Version: 6.00 Build 0)  -->
<svg version="1.1" id="Layer_1" xmlns="http://www.w3.org/2000/svg" xmlns:xlink="http://www.w3.org/1999/xlink" x="0px" y="0px"
	 viewBox="0 0 654.8 516.8" style="enable-background:new 0 0 654.8 516.8;" xml:space="preserve">
<style type="text/css">
	.st0{fill:#B56321;}
	.st1{fill:url(#SVGID_1_);}
	.st2{fill:#FFFFFF;}
	.st3{opacity:0.2;fill:#8E5004;}
	.st4{fill:url(#SVGID_2_);}
</style>
<g>
	<g>
		<path class="st0" d="M650.7,291.6l-382,225.1c-12.3-11.9-37-13-55.3-2.3l-147.6-146c17.8-9.4,23.4-25.3,12.9-35.6l370.6-193.3
			c11.3,8.5,32.4,9.2,47,1.5l8,5.9l-16.2,8.6l6.4,4.8l16.2-8.7l9.6,7.2l-16.3,8.7l6.5,4.8l16.3-8.8l9.8,7.2l-16.3,8.8l6.5,4.9
			l16.3-8.9l9.9,7.3l-16.3,8.9l6.6,5l16.3-9l10,7.4l-16.3,9l6.7,5l16.4-9.1l10.1,7.5l-16.4,9.1l6.8,5.1l16.4-9.2l10.3,7.6l-16.4,9.2
			l6.9,5.2l16.4-9.3l10.4,7.7l-16.4,9.4l7,5.2l16.4-9.4l10.5,7.8l-16.5,9.5l7,5.3l16.5-9.5l8.9,6.6
			C639.3,266.9,637.7,281.8,650.7,291.6z"/>
		
			<linearGradient id="SVGID_1_" gradientUnits="userSpaceOnUse" x1="124.3801" y1="250.6216" x2="499.3596" y2="250.6216" gradientTransform="matrix(0 1 -1 0 612.1674 9.5872)">
			<stop  offset="0" style="stop-color:#FFD559"/>
			<stop  offset="1" style="stop-color:#FFA912"/>
		</linearGradient>
		<path class="st1" d="M651.4,285.2L270.7,508.9c-12.3-11.9-36.9-12.9-55.1-2.3L68.3,361.6c17.7-9.3,23.3-25.2,12.8-35.3L450.4,134
			c11.3,8.5,32.3,9.2,46.9,1.5l8,5.9l-16.2,8.6l6.4,4.8l16.2-8.6l9.6,7.1l-16.2,8.7l6.4,4.8l16.2-8.7l9.7,7.2l-16.2,8.8l6.5,4.9
			L544,170l9.9,7.3l-16.3,8.9l6.6,4.9l16.3-8.9l10,7.4l-16.3,9l6.7,5l16.3-9l10.1,7.5l-16.3,9.1l6.8,5.1L594,207l10.2,7.6l-16.4,9.2
			l6.9,5.1l16.4-9.2l10.4,7.7l-16.4,9.3l6.9,5.2l16.4-9.4l10.5,7.8l-16.4,9.4l7,5.3l16.4-9.5l8.9,6.6
			C640,260.6,638.4,275.4,651.4,285.2z"/>
		<path class="st2" d="M596.7,257.1c-2.4,6.1-3.2,12.5-2.5,18.7L270.6,462.5c-9.8-1.6-20.2-2.1-30.6-1.2L130,356
			c3.8-6.6,6.1-13.4,6.7-20l316.9-167.7c8.7,1.2,17.9,1.5,26.9,0.9l4.6,3.5l6.4,4.9l9.7,7.3l6.5,4.9l9.8,7.4l6.6,5l9.9,7.5l6.7,5
			l10.1,7.6l6.7,5.1l10.2,7.7l6.8,5.2l10.3,7.8l6.9,5.2L596.7,257.1 M604.2,255.9l-7.3-5.5l-6.9-5.2l-10.3-7.8l-6.8-5.2l-10.2-7.7
			l-6.8-5.1l-10.1-7.6l-6.7-5l-9.9-7.5l-6.6-5l-9.8-7.4l-6.5-4.9l-9.7-7.3l-6.4-4.9l-6.7-5c-10.5,1.1-21.2,0.7-31.1-1L129.8,334.1
			c-0.2,7.7-2.9,15.6-7.8,23.2L236,466.9c12.2-1.4,24.3-0.9,35.5,1.4l329.8-190.7C600,270.3,600.9,262.9,604.2,255.9L604.2,255.9z"
			/>
		<g>
			<polygon class="st2" points="593.5,297.3 584.5,300 578.2,295.1 578.8,301.6 569.7,304.3 579.2,305.7 579.9,312.2 585.1,306.5 
				594.6,307.9 588.3,303 593.5,297.3 			"/>
			<polygon class="st2" points="557.5,318.3 548.3,321 542,316.1 542.6,322.7 533.3,325.4 542.9,326.8 543.4,333.5 548.8,327.7 
				558.4,329.1 552.1,324.1 557.5,318.3 			"/>
			<polygon class="st2" points="520.7,339.7 511.4,342.5 505.2,337.4 505.6,344.2 496.2,346.9 505.9,348.4 506.3,355.2 511.9,349.3 
				521.5,350.7 515.3,345.6 520.7,339.7 			"/>
			<polygon class="st2" points="483.3,361.5 473.8,364.3 467.7,359.2 468,366 458.5,368.9 468.2,370.3 468.5,377.3 474.2,371.2 
				483.9,372.7 477.7,367.5 483.3,361.5 			"/>
			<polygon class="st2" points="445.2,383.7 435.5,386.6 429.4,381.3 429.6,388.3 419.9,391.2 429.7,392.7 429.9,399.8 435.8,393.6 
				445.6,395.1 439.4,389.8 445.2,383.7 			"/>
			<polygon class="st2" points="406.3,406.4 396.5,409.3 390.4,403.9 390.5,411.1 380.7,414 390.5,415.5 390.6,422.8 396.6,416.5 
				406.5,418 400.3,412.6 406.3,406.4 			"/>
			<polygon class="st2" points="366.6,429.5 356.7,432.4 350.6,427 350.6,434.3 340.6,437.2 350.5,438.8 350.5,446.2 356.7,439.8 
				366.6,441.3 360.5,435.8 366.6,429.5 			"/>
			<polygon class="st2" points="326.1,453 316.1,456 310.1,450.4 309.9,457.9 299.8,460.9 309.8,462.5 309.6,470.1 315.9,463.5 
				325.9,465.1 319.9,459.5 326.1,453 			"/>
		</g>
		<g>
			<polygon class="st2" points="423,165.6 414.3,167.9 408.8,163.6 408.9,169.4 400.2,171.7 409,172.9 409.1,178.7 414.5,173.7 
				423.3,174.9 417.7,170.6 423,165.6 			"/>
			<polygon class="st2" points="387.7,184.1 378.9,186.5 373.4,182.1 373.5,187.9 364.6,190.3 373.5,191.6 373.5,197.4 379,192.3 
				387.8,193.5 382.3,189.2 387.7,184.1 			"/>
			<polygon class="st2" points="351.8,202.9 342.9,205.3 337.4,200.9 337.4,206.8 328.4,209.3 337.3,210.5 337.2,216.5 342.8,211.3 
				351.8,212.6 346.3,208.1 351.8,202.9 			"/>
			<polygon class="st2" points="315.3,222.1 306.2,224.6 300.8,220.1 300.6,226.1 291.5,228.6 300.5,229.9 300.3,236 306,230.6 
				315,231.9 309.6,227.4 315.3,222.1 			"/>
			<polygon class="st2" points="278.1,241.6 268.9,244.1 263.5,239.5 263.2,245.7 254,248.2 263,249.5 262.7,255.7 268.6,250.3 
				277.6,251.6 272.2,247 278.1,241.6 			"/>
			<polygon class="st2" points="240.2,261.5 230.9,264.1 225.5,259.4 225.1,265.7 215.8,268.2 224.9,269.5 224.4,275.9 230.5,270.4 
				239.6,271.7 234.2,267 240.2,261.5 			"/>
			<polygon class="st2" points="201.6,281.8 192.2,284.4 186.9,279.6 186.3,286 176.9,288.6 186,289.9 185.5,296.4 191.6,290.8 
				200.8,292.1 195.5,287.3 201.6,281.8 			"/>
			<polygon class="st2" points="162.3,302.4 152.7,305 147.5,300.2 146.8,306.7 137.2,309.3 146.4,310.7 145.7,317.3 152.1,311.6 
				161.3,313 156,308 162.3,302.4 			"/>
		</g>
		<g>
			<path class="st2" d="M370.3,311.3c-15.2,8.4-30.5,17-46,25.5c-16,8.8-38.5,4.4-42.1-8.1c-3.1-10.9,9.3-22,26.5-23.9
				c3.9-0.4,6.2-2,6.1-4.2c0-2.1-2.6-3.4-6.4-3c-4.4,0.4-8.7,1.2-12.7,2.7c-1.9,0.7-2.5,0.5-3.1-0.7c-5.9-11.7,1.1-25.1,17.2-33.4
				c15.1-7.8,36.1-8.5,50.6-1.7c2.9,1.4,2.9,1.4,1.5,3.6c-0.7,1.2-1.5,2.4-0.8,3.6c0.8,1.4,2.7,2.2,4.9,2.1c2.4-0.1,4.5-1.1,5.3-2.8
				c1.7-3.4,4.6-6.3,8.7-8.6c10.2-5.9,24.1-6.6,34.2-1.7c2.9,1.4,6,1.2,8.2-0.6c2.1-1.7,1.5-3.8-1.3-5.2c-7.5-3.7-16.2-5.1-26.1-4.2
				c-9.2,0.8-17,3.8-24.1,7.9c-1.2,0.7-2,0.9-3.4,0.2c-20.7-9.9-50.7-7.4-70.7,6c-16.2,10.9-21.8,26.9-13.7,39.8
				c0.5,0.8,0.5,1.3-0.6,2.1c-11.8,8.5-15.2,19.4-9.2,29.3c0.2,0.4,0.9,0.7,0.4,1.2c2.3,2,4.6,4.1,6.9,6.1c0.9-0.2,1.2,0.3,1.7,0.6
				c14.2,7.4,33.6,6.6,49.1-2.1c13.4-7.5,26.8-14.9,40-22.3c2.1-1.1,4.2-2.2,6.2-3.4c3.1-1.9,2.7-5-0.8-6
				C374.6,309.4,372.4,310.1,370.3,311.3z"/>
			<path class="st2" d="M376.7,291.2l-2.7,1.5c0.4,0.9,0.4,1.8-0.1,2.9c-0.4,1.1-1,1.9-1.7,2.6l2.2,1.9c1.3-1.3,2.1-2.6,2.5-4
				l9.4,7.8l3.4-1.9L376.7,291.2z"/>
			<path class="st2" d="M409.8,319l-13.2-11l-2.7,1.5c0.4,0.9,0.4,1.9,0,2.9c-0.4,1.1-1,2-1.7,2.6l2.3,1.9c1.3-1.3,2.1-2.6,2.5-4
				l9.5,8L409.8,319z"/>
			<path class="st2" d="M423.9,311.1l-13.2-11l-2.7,1.5c0.4,0.9,0.4,1.9,0,2.9c-0.4,1.1-1,1.9-1.6,2.6l2.3,1.9
				c1.3-1.3,2.1-2.6,2.4-4l9.5,7.9L423.9,311.1z"/>
			<path class="st2" d="M421.8,296.8c-0.4,1.1-1,1.9-1.6,2.6l2.3,1.9c1.2-1.3,2.1-2.6,2.4-4l9.5,7.9l3.3-1.9l-13.3-10.9l-2.7,1.5
				C422.2,294.8,422.2,295.7,421.8,296.8z"/>
			<path class="st2" d="M387.8,285.1c-1.7,0.9-2.6,2-2.6,3.3c-0.1,1.5,1.1,3.3,3.5,5.3c2.5,2.1,4.7,3.2,6.8,3.5
				c2,0.2,3.9-0.1,5.6-1.1c1.7-0.9,2.6-2,2.6-3.3c0.1-1.5-1.1-3.3-3.6-5.3c-2.5-2-4.8-3.2-7-3.4
				C391.3,283.8,389.5,284.2,387.8,285.1z M399.5,292.3c0.3,0.5,0.4,0.9,0.3,1.3c-0.1,0.3-0.4,0.6-0.8,0.8c-0.4,0.2-0.9,0.3-1.4,0.4
				c-0.5,0-1.1-0.2-1.9-0.5c-0.8-0.4-1.9-1.2-3.4-2.4c-1.5-1.3-2.5-2.2-2.9-2.9c-0.3-0.5-0.4-0.9-0.3-1.3c0.1-0.3,0.4-0.6,0.8-0.8
				c0.4-0.2,0.9-0.3,1.4-0.4c0.5,0,1.1,0.2,1.9,0.5c0.8,0.4,1.9,1.2,3.4,2.4C398.1,290.7,399.1,291.6,399.5,292.3z"/>
			<path class="st2" d="M432.6,278.3l-13.1-10.6l-2.7,1.5c0.4,0.9,0.4,1.8,0,2.8c-0.4,1-1,1.9-1.6,2.5l2.3,1.8
				c1.2-1.2,2-2.5,2.4-3.9l9.4,7.7L432.6,278.3z"/>
			<path class="st2" d="M427.9,264.9c-0.1,1.5,1.1,3.2,3.6,5.2c2.5,2,4.8,3.2,6.8,3.4c2,0.2,3.8-0.1,5.5-1.1c1.7-0.9,2.5-2,2.5-3.2
				c0-1.5-1.2-3.2-3.7-5.2c-2.5-2-4.8-3.1-7-3.4c-1.8-0.2-3.6,0.1-5.2,1.1C428.8,262.6,427.9,263.7,427.9,264.9z M432,265.4
				c-0.3-0.5-0.4-0.9-0.3-1.2c0.1-0.3,0.4-0.6,0.8-0.8c0.4-0.2,0.8-0.3,1.3-0.3c0.5,0,1.1,0.2,1.9,0.5c0.8,0.3,1.9,1.1,3.5,2.4
				c1.5,1.2,2.5,2.2,2.9,2.8c0.3,0.5,0.4,0.9,0.3,1.2c-0.1,0.3-0.4,0.6-0.8,0.8c-0.4,0.2-0.8,0.3-1.3,0.4c-0.5,0-1.1-0.2-1.9-0.5
				c-0.8-0.4-1.9-1.1-3.5-2.4C433.4,267,432.5,266.1,432,265.4z"/>
			<path class="st2" d="M441,285.1c-1.9-0.2-3.6,0.1-5.3,1.1c-1.7,0.9-2.5,2-2.6,3.3c0,1.5,1.2,3.3,3.7,5.3c2.5,2.1,4.8,3.2,6.8,3.5
				c2,0.2,3.9-0.1,5.6-1.1c1.7-0.9,2.5-2,2.6-3.3c0-1.5-1.2-3.3-3.7-5.3C445.5,286.5,443.2,285.3,441,285.1z M447.5,293.3
				c0.3,0.5,0.4,0.9,0.3,1.3c-0.1,0.3-0.4,0.6-0.8,0.8c-0.4,0.2-0.9,0.3-1.4,0.4c-0.5,0-1.2-0.2-1.9-0.5c-0.8-0.4-2-1.2-3.5-2.4
				c-1.5-1.3-2.5-2.2-3-2.9c-0.3-0.5-0.4-0.9-0.3-1.3c0.1-0.3,0.4-0.6,0.8-0.8c0.4-0.2,0.9-0.3,1.4-0.4c0.5,0,1.1,0.2,1.9,0.5
				c0.8,0.4,2,1.2,3.5,2.4C446.1,291.7,447.1,292.7,447.5,293.3z"/>
			<path class="st2" d="M413.3,324.6c-1.4-0.2-2.7,0.1-4,0.8c-1.3,0.7-1.9,1.6-2,2.5c0,1.2,0.9,2.5,2.7,4.1c1.9,1.6,3.6,2.5,5.1,2.7
				c1.5,0.2,2.9-0.1,4.2-0.8c1.3-0.7,1.9-1.6,2-2.5c0-1.2-0.9-2.5-2.7-4.1C416.8,325.7,415,324.8,413.3,324.6z M418.2,331
				c0.2,0.4,0.3,0.7,0.2,1c-0.1,0.3-0.3,0.5-0.6,0.6c-0.3,0.2-0.6,0.3-1,0.3c-0.4,0-0.9-0.1-1.5-0.4c-0.6-0.3-1.5-0.9-2.6-1.9
				c-1.2-1-1.9-1.7-2.2-2.2c-0.2-0.4-0.3-0.7-0.2-1c0.1-0.3,0.3-0.5,0.6-0.6c0.3-0.2,0.6-0.3,1-0.3c0.4,0,0.9,0.1,1.5,0.4
				c0.6,0.3,1.5,0.9,2.6,1.9C417.2,329.7,417.9,330.5,418.2,331z"/>
			<path class="st2" d="M419.5,321.8c-0.3,0.8-0.7,1.5-1.2,2l1.7,1.4c0.9-1,1.5-2,1.8-3l7.2,6l2.5-1.4l-9.9-8.3l-2,1.1
				C419.9,320.3,419.9,321,419.5,321.8z"/>
			<path class="st2" d="M441.4,319.9c0-1.2-0.9-2.5-2.8-4.1c-1.9-1.6-3.6-2.4-5.3-2.6c-1.4-0.2-2.7,0.1-4,0.8
				c-1.3,0.7-1.9,1.5-1.9,2.5c0,1.2,0.9,2.5,2.7,4.1c1.9,1.6,3.6,2.5,5.1,2.6c1.5,0.2,2.9-0.1,4.2-0.8
				C440.7,321.7,441.3,320.8,441.4,319.9z M438.2,319.5c0.2,0.4,0.3,0.7,0.2,1c-0.1,0.3-0.3,0.5-0.6,0.6c-0.3,0.2-0.6,0.3-1,0.3
				c-0.4,0-0.9-0.1-1.5-0.4c-0.6-0.3-1.5-0.9-2.6-1.9c-1.2-1-1.9-1.7-2.2-2.2c-0.2-0.4-0.3-0.7-0.2-1c0.1-0.3,0.3-0.5,0.6-0.6
				c0.3-0.2,0.6-0.3,1-0.3c0.4,0,0.9,0.1,1.5,0.4c0.6,0.3,1.5,0.9,2.6,1.9C437.1,318.2,437.9,319,438.2,319.5z"/>
			<path class="st2" d="M451.4,315.3l-10-8.2l-2,1.1c0.3,0.7,0.3,1.4,0,2.2c-0.3,0.8-0.7,1.5-1.2,2l1.7,1.4c0.9-1,1.5-2,1.8-3
				l7.2,5.9L451.4,315.3z"/>
			<path class="st2" d="M462.9,295.1c-1.2,0.7-1.9,1.5-1.9,2.5c0,1.1,0.9,2.5,2.8,4c1.9,1.6,3.6,2.4,5.1,2.6
				c1.5,0.2,2.9-0.1,4.1-0.8c1.2-0.7,1.9-1.5,1.9-2.5c0-1.1-0.9-2.5-2.8-4c-1.9-1.5-3.7-2.4-5.3-2.6
				C465.4,294.1,464.1,294.4,462.9,295.1z M471.8,300.5c0.3,0.4,0.3,0.7,0.3,0.9c-0.1,0.3-0.3,0.5-0.6,0.6c-0.3,0.2-0.6,0.3-1,0.3
				c-0.4,0-0.9-0.1-1.4-0.4c-0.6-0.3-1.5-0.9-2.6-1.8c-1.2-0.9-1.9-1.7-2.2-2.2c-0.3-0.4-0.3-0.7-0.2-0.9c0.1-0.3,0.3-0.5,0.6-0.6
				c0.3-0.2,0.6-0.3,1-0.3c0.4,0,0.9,0.1,1.4,0.4c0.6,0.3,1.5,0.9,2.6,1.8C470.7,299.3,471.5,300,471.8,300.5z"/>
			<path class="st2" d="M463.2,310.1c-1.3,0.7-1.9,1.5-1.9,2.5c0,1.2,0.9,2.5,2.8,4.1c1.9,1.6,3.7,2.5,5.2,2.6
				c1.5,0.2,2.9-0.1,4.2-0.8c1.3-0.7,1.9-1.6,1.9-2.5c0-1.2-0.9-2.5-2.8-4.1c-1.9-1.5-3.7-2.4-5.3-2.6
				C465.8,309.1,464.4,309.4,463.2,310.1z M472.1,315.5c0.3,0.4,0.3,0.7,0.3,1c-0.1,0.3-0.3,0.5-0.6,0.6c-0.3,0.2-0.6,0.3-1,0.3
				c-0.4,0-0.9-0.1-1.5-0.4c-0.6-0.3-1.5-0.9-2.7-1.9c-1.2-1-1.9-1.7-2.3-2.2c-0.3-0.4-0.3-0.7-0.2-1c0.1-0.3,0.3-0.5,0.6-0.6
				c0.3-0.2,0.6-0.3,1-0.3c0.4,0,0.9,0.1,1.5,0.4c0.6,0.3,1.5,0.9,2.7,1.8C471.1,314.3,471.8,315,472.1,315.5z"/>
			<path class="st2" d="M486.6,298c-1.4-0.2-2.7,0.1-3.9,0.8c-1.2,0.7-1.9,1.5-1.9,2.5c0,1.1,0.9,2.5,2.8,4c1.9,1.6,3.7,2.4,5.2,2.6
				c1.5,0.2,2.9-0.1,4.1-0.8c1.2-0.7,1.9-1.5,1.9-2.5c0-1.1-0.9-2.5-2.9-4C490.1,299.1,488.3,298.2,486.6,298z M491.7,304.2
				c0.3,0.4,0.3,0.7,0.3,1c-0.1,0.3-0.3,0.5-0.6,0.6c-0.3,0.2-0.6,0.3-1,0.3c-0.4,0-0.9-0.1-1.5-0.4c-0.6-0.3-1.5-0.9-2.7-1.8
				c-1.2-1-1.9-1.7-2.3-2.2c-0.3-0.4-0.3-0.7-0.3-0.9c0.1-0.3,0.3-0.5,0.6-0.6c0.3-0.2,0.6-0.3,1-0.3c0.4,0,0.9,0.1,1.5,0.4
				c0.6,0.3,1.5,0.9,2.7,1.8C490.6,303,491.3,303.7,491.7,304.2z"/>
			<path class="st2" d="M421,337.6c-0.9,0.5-1.4,1.2-1.4,1.9c0,0.9,0.6,1.9,2,3c1.4,1.2,2.7,1.8,3.8,2c1.1,0.1,2.2-0.1,3.1-0.6
				c0.9-0.5,1.4-1.2,1.4-1.9c0-0.9-0.7-1.9-2-3c-1.4-1.2-2.7-1.8-3.9-2C423,336.9,422,337.1,421,337.6z M427.6,341.7
				c0.2,0.3,0.2,0.5,0.2,0.7c-0.1,0.2-0.2,0.4-0.4,0.5c-0.2,0.1-0.5,0.2-0.8,0.2c-0.3,0-0.6-0.1-1.1-0.3c-0.4-0.2-1.1-0.7-1.9-1.4
				c-0.9-0.7-1.4-1.3-1.6-1.6c-0.2-0.3-0.2-0.5-0.2-0.7c0.1-0.2,0.2-0.3,0.4-0.5c0.2-0.1,0.5-0.2,0.8-0.2c0.3,0,0.6,0.1,1.1,0.3
				c0.4,0.2,1.1,0.7,1.9,1.4C426.8,340.8,427.4,341.3,427.6,341.7z"/>
			<path class="st2" d="M428.5,335c-0.2,0.6-0.5,1.1-0.9,1.5l1.3,1.1c0.7-0.7,1.1-1.5,1.3-2.2l5.3,4.4l1.9-1.1l-7.3-6.1l-1.5,0.9
				C428.7,333.9,428.7,334.4,428.5,335z"/>
			<path class="st2" d="M455.2,330.4c-0.9,0.5-1.4,1.1-1.4,1.9c0,0.9,0.7,1.9,2.1,3c1.4,1.2,2.7,1.8,3.8,2c1.1,0.1,2.2-0.1,3.1-0.6
				c0.9-0.5,1.4-1.2,1.4-1.9c0-0.9-0.7-1.9-2.1-3c-1.4-1.2-2.7-1.8-3.9-1.9C457.1,329.7,456.1,329.9,455.2,330.4z M461.8,334.5
				c0.2,0.3,0.2,0.5,0.2,0.7c-0.1,0.2-0.2,0.3-0.4,0.5c-0.2,0.1-0.5,0.2-0.8,0.2c-0.3,0-0.6-0.1-1.1-0.3c-0.4-0.2-1.1-0.7-2-1.4
				c-0.9-0.7-1.4-1.3-1.7-1.6c-0.2-0.3-0.2-0.5-0.2-0.7c0.1-0.2,0.2-0.3,0.4-0.5c0.2-0.1,0.5-0.2,0.8-0.2c0.3,0,0.6,0.1,1.1,0.3
				c0.4,0.2,1.1,0.7,2,1.4C461,333.6,461.6,334.1,461.8,334.5z"/>
			<path class="st2" d="M462.6,327.9c-0.2,0.6-0.5,1.1-0.9,1.5l1.3,1.1c0.7-0.7,1.1-1.5,1.3-2.2l5.3,4.4l1.8-1l-7.4-6.1l-1.5,0.8
				C462.8,326.7,462.8,327.3,462.6,327.9z"/>
			<path class="st2" d="M484.8,296.4l-10-8.1l-2,1.1c0.3,0.6,0.3,1.4,0,2.1c-0.3,0.8-0.7,1.4-1.2,1.9l1.7,1.4c0.9-0.9,1.5-1.9,1.7-3
				l7.2,5.8L484.8,296.4z"/>
			<path class="st2" d="M473.1,306.6c-0.3,0.8-0.7,1.4-1.2,1.9l1.7,1.4c0.9-1,1.5-1.9,1.7-3l7.3,5.9l2.5-1.4l-10.1-8.2l-2,1.1
				C473.4,305,473.4,305.8,473.1,306.6z"/>
		</g>
		<path class="st3" d="M651.4,285.2L270.7,508.9c-12.3-11.9-36.9-12.9-55.1-2.3L88,381c59.6,0.7,128.4-1.9,194.5-11.8
			C412.6,349.7,542.1,265.6,594,228.4l0.7,0.6l16.4-9.2l10.4,7.7l-16.4,9.3l6.9,5.2l16.4-9.4l10.5,7.8l-16.4,9.4l7,5.3l16.4-9.5
			l8.9,6.6C640,260.6,638.4,275.4,651.4,285.2z"/>
		<g>
			<polygon class="st2" points="254.5,445 154.1,350.3 146.3,354.4 246.5,449.5 254.5,445 			"/>
			<polygon class="st2" points="253.9,420.3 185.3,356.3 177.6,360.5 246.1,424.7 253.9,420.3 			"/>
			<polygon class="st2" points="275.5,416.5 195.7,342.9 188,347.1 267.6,421 275.5,416.5 			"/>
			<polygon class="st2" points="274.8,392.6 226.9,348.8 219.2,352.9 267.1,396.9 274.8,392.6 			"/>
		</g>
		<g>
			<polygon class="st2" points="534,276.7 441.6,204.5 434.8,208.1 527.1,280.7 534,276.7 			"/>
			<polygon class="st2" points="537.2,260.5 465.5,204.9 458.7,208.6 530.3,264.3 537.2,260.5 			"/>
			<polygon class="st2" points="542.7,246.3 487.1,203.6 480.4,207.3 535.9,250.1 542.7,246.3 			"/>
			<polygon class="st2" points="570.3,249.2 487.5,186.1 480.8,189.7 563.6,253 570.3,249.2 			"/>
		</g>
	</g>
	<g>
		<path class="st0" d="M542.2,114.1l-296,254.6c-9.5-5.1-36-8.3-54.5,7.3L0,271.8c14.9-11.3,15.5-26.4,1.6-33.8L307.1,10.4
			c13.4,5.9,33.9,3.5,45.6-5.3l9.4,4.1l-13,9.9l7.5,3.3l13-9.9l11.3,4.9l-12.9,10l7.6,3.3l12.9-10l11.4,5l-12.9,10l7.7,3.4L407.6,29
			l11.5,5l-12.9,10.1l7.7,3.4l12.8-10.2l11.6,5.1l-12.8,10.2l7.8,3.4l12.8-10.2l11.7,5.1l-12.8,10.3l7.9,3.5l12.8-10.3l11.8,5.2
			l-12.7,10.4l7.9,3.5l12.7-10.4l11.9,5.2l-12.7,10.5l8,3.5l12.7-10.5l12.1,5.2L505,87.4l8.1,3.6l12.6-10.6l10.2,4.4
			C524.6,94.4,527.3,107.5,542.2,114.1z"/>
		
			<linearGradient id="SVGID_2_" gradientUnits="userSpaceOnUse" x1="44.075" y1="206.1225" x2="374.7172" y2="206.1225" gradientTransform="matrix(0.2442 0.9697 -0.9697 0.2442 419.4135 -68.6016)">
			<stop  offset="0" style="stop-color:#FFD559"/>
			<stop  offset="1" style="stop-color:#FFA912"/>
		</linearGradient>
		<path class="st4" d="M541,108.4L245.8,361.5c-15.5-8.3-39.7-5.1-54.3,7.2L0.3,265.3c14.8-11.2,15.5-26.2,1.6-33.6L306.6,5.3
			c13.4,5.9,33.8,3.5,45.5-5.3l9.4,4.1l-12.9,9.8l7.5,3.3l12.9-9.8l11.3,4.9l-12.9,9.9l7.6,3.3l12.9-9.9l11.4,4.9l-12.9,10l7.6,3.3
			l12.9-10l11.5,5l-12.8,10.1l7.7,3.4L426,32.1l11.6,5l-12.8,10.2l7.8,3.4l12.8-10.2l11.7,5.1l-12.7,10.2l7.9,3.4L464.9,49l11.8,5.1
			L464,64.4l7.9,3.5l12.7-10.4l11.9,5.2l-12.7,10.4l8,3.5l12.6-10.5l12,5.2l-12.6,10.5l8.1,3.5l12.6-10.6l10.2,4.4
			C523.4,88.8,526.1,101.9,541,108.4z"/>
		<path class="st2" d="M481.9,92.1c-0.5,5.6,0.6,11.3,3.1,16.6L231.6,321.1c-10,0.2-20.3,1.5-30.1,4L60.4,250.4
			c1.8-6.5,1.9-12.9,0.4-18.9l259-196.4c8.7-0.1,17.6-1.2,26.1-3.1l5.4,2.4l7.6,3.4l11.4,5.1l7.7,3.4l11.5,5.1l7.7,3.4l11.6,5.2
			l7.8,3.4l11.8,5.2l7.9,3.5l11.9,5.2l7.9,3.5l12,5.3l8,3.5L481.9,92.1 M488.6,90l-8.4-3.7l-8-3.5l-12-5.3l-7.9-3.5l-11.9-5.2
			l-7.9-3.5l-11.7-5.2l-7.8-3.4l-11.6-5.1l-7.7-3.4L382.1,43l-7.7-3.4l-11.4-5l-7.6-3.3l-7.9-3.5c-9.8,2.4-20.1,3.6-30.2,3.5
			l-264,199.6c2.2,6.9,2.1,14.3-0.5,21.9l146.5,77.8c11.5-3.2,23.4-4.8,35-4.6l257.9-216.9C488.8,103.1,487.6,96.5,488.6,90
			L488.6,90z"/>
		<g>
			<polygon class="st2" points="490.5,127.4 482.8,131 475.5,127.7 478,133.3 470.2,136.9 479.5,136.7 482,142.3 485.3,136.6 
				494.6,136.4 487.3,133.1 490.5,127.4 			"/>
			<polygon class="st2" points="462.8,150.9 454.9,154.6 447.6,151.3 450.1,156.9 442.1,160.7 451.6,160.4 454,166.1 457.4,160.3 
				466.8,160.1 459.5,156.7 462.8,150.9 			"/>
			<polygon class="st2" points="434.5,174.9 426.4,178.7 419.1,175.3 421.5,181.1 413.4,184.9 422.9,184.7 425.3,190.5 428.8,184.6 
				438.4,184.3 431,180.9 434.5,174.9 			"/>
			<polygon class="st2" points="405.4,199.5 397.3,203.4 389.9,199.9 392.2,205.8 384,209.7 393.7,209.5 396,215.5 399.6,209.4 
				409.3,209.1 401.9,205.6 405.4,199.5 			"/>
			<polygon class="st2" points="375.8,224.7 367.5,228.7 360.1,225.1 362.3,231.1 354,235.1 363.7,234.9 366,241 369.8,234.8 
				379.5,234.5 372.1,230.9 375.8,224.7 			"/>
			<polygon class="st2" points="345.4,250.4 336.9,254.5 329.5,250.8 331.7,257 323.2,261.1 333.1,260.9 335.3,267.2 339.2,260.7 
				349,260.5 341.5,256.8 345.4,250.4 			"/>
			<polygon class="st2" points="314.3,276.8 305.7,281 298.2,277.2 300.3,283.5 291.7,287.7 301.7,287.5 303.8,293.9 307.9,287.3 
				317.8,287.1 310.3,283.3 314.3,276.8 			"/>
			<polygon class="st2" points="282.5,303.8 273.7,308 266.2,304.2 268.3,310.7 259.4,315 269.5,314.7 271.6,321.3 275.8,314.6 
				285.9,314.3 278.3,310.4 282.5,303.8 			"/>
		</g>
		<g>
			<polygon class="st2" points="289.6,37.1 281.9,40.4 275.3,37.4 277.1,42.5 269.4,45.8 278.2,45.6 280.1,50.7 283.7,45.5 
				292.6,45.2 286,42.2 289.6,37.1 			"/>
			<polygon class="st2" points="261,58.5 253.2,61.9 246.5,58.9 248.3,64 240.4,67.4 249.4,67.2 251.2,72.4 255,67.1 264,66.9 
				257.3,63.8 261,58.5 			"/>
			<polygon class="st2" points="231.8,80.5 223.8,83.9 217.1,80.8 218.9,86.1 210.9,89.6 220,89.3 221.7,94.7 225.6,89.2 234.7,89 
				228,85.9 231.8,80.5 			"/>
			<polygon class="st2" points="201.9,102.9 193.8,106.4 187.1,103.2 188.8,108.6 180.7,112.1 189.8,111.9 191.5,117.4 195.5,111.8 
				204.7,111.6 198,108.4 201.9,102.9 			"/>
			<polygon class="st2" points="171.4,125.7 163.2,129.4 156.5,126.1 158.1,131.6 149.8,135.2 159.1,135 160.7,140.6 164.8,134.9 
				174.1,134.7 167.4,131.4 171.4,125.7 			"/>
			<polygon class="st2" points="140.3,149.1 131.9,152.8 125.1,149.5 126.7,155.1 118.2,158.9 127.6,158.6 129.2,164.3 133.4,158.5 
				142.8,158.3 136,154.9 140.3,149.1 			"/>
			<polygon class="st2" points="108.4,173.1 99.8,176.9 93.1,173.4 94.5,179.2 85.9,183 95.5,182.8 96.9,188.6 101.3,182.6 
				110.8,182.4 104,179 108.4,173.1 			"/>
			<polygon class="st2" points="75.8,197.6 67.1,201.4 60.3,197.9 61.7,203.8 52.9,207.7 62.5,207.5 64,213.4 68.5,207.3 
				78.1,207.1 71.3,203.6 75.8,197.6 			"/>
		</g>
		<g>
			<path class="st2" d="M282.4,173.1c-12.1,9.7-24.4,19.6-36.8,29.4c-12.9,10.2-36.1,9.9-43.4-0.6c-6.4-9.1,2.4-20.8,18.6-25.1
				c3.7-1,5.4-2.7,4.7-4.7c-0.7-1.9-3.6-2.5-7.2-1.7c-4.2,1-8.1,2.4-11.6,4.3c-1.7,0.9-2.3,0.8-3.2-0.2c-9.3-9.4-6.6-22.3,6.6-32.2
				c12.4-9.2,32.6-13,48.7-9.2c3.2,0.8,3.2,0.8,2.6,3c-0.3,1.2-0.7,2.3,0.3,3.3c1.2,1.1,3.3,1.5,5.4,1.1c2.3-0.5,4-1.6,4.3-3.3
				c0.7-3.2,2.5-6.2,5.8-8.9c8.1-6.7,21.3-9.4,32.5-6.6c3.2,0.8,6.2,0.1,7.7-1.7c1.5-1.8,0.3-3.5-2.8-4.3c-8.4-2.1-17.2-2-26.4,0.2
				c-8.6,2.1-15.3,5.9-20.9,10.6c-1,0.8-1.6,1.1-3.2,0.7c-23.1-5.7-51.6,1.2-67,16c-12.5,12.1-13.1,27.1-1.2,37.3
				c0.7,0.6,0.9,1.1,0,2c-8.9,9.3-8.9,19.5,0,27.2c0.3,0.3,1.1,0.5,0.8,1c2.9,1.4,5.7,2.9,8.6,4.3c0.8-0.3,1.3,0.1,1.8,0.2
				c16.1,4.3,34.7,0.5,47.2-9.5c10.8-8.6,21.4-17.2,32-25.7c1.6-1.3,3.3-2.6,4.9-4c2.5-2.1,1.1-4.8-2.6-5.1
				C286.1,170.8,284.2,171.7,282.4,173.1z"/>
			<path class="st2" d="M282.6,154.6l-2.2,1.7c0.6,0.7,0.9,1.6,0.8,2.6c-0.1,1-0.4,1.8-0.8,2.5l2.7,1.3c0.8-1.3,1.3-2.6,1.2-3.9
				l11.4,5.5l2.7-2.2L282.6,154.6z"/>
			<path class="st2" d="M322.8,173.8l-16-7.6l-2.2,1.8c0.7,0.7,0.9,1.6,0.8,2.6c-0.1,1-0.4,1.9-0.8,2.6l2.8,1.3
				c0.8-1.3,1.2-2.6,1.2-3.9l11.5,5.5L322.8,173.8z"/>
			<path class="st2" d="M333.9,164.8l-16-7.6l-2.2,1.7c0.7,0.7,0.9,1.6,0.9,2.6c-0.1,1-0.4,1.9-0.8,2.5l2.8,1.3
				c0.8-1.3,1.2-2.6,1.1-3.9l11.5,5.5L333.9,164.8z"/>
			<path class="st2" d="M327.7,152.6c-0.1,1-0.3,1.8-0.8,2.5l2.8,1.3c0.8-1.3,1.2-2.6,1.1-3.9l11.5,5.4l2.6-2.1l-15.9-7.5l-2.1,1.7
				C327.5,150.7,327.8,151.6,327.7,152.6z"/>
			<path class="st2" d="M291.6,147.5c-1.4,1.1-1.9,2.2-1.6,3.3c0.4,1.3,2,2.7,5,4.1c3,1.4,5.5,2.1,7.6,2c2-0.1,3.7-0.7,5.1-1.8
				c1.4-1.1,1.9-2.2,1.5-3.3c-0.4-1.3-2.1-2.7-5-4.1c-3-1.4-5.6-2.1-7.7-1.9C294.5,145.8,292.9,146.4,291.6,147.5z M305,152
				c0.5,0.4,0.7,0.8,0.7,1.1c0,0.3-0.2,0.6-0.5,0.9c-0.3,0.3-0.7,0.4-1.2,0.5c-0.5,0.1-1.1,0-2-0.2c-0.9-0.2-2.2-0.7-4.1-1.6
				c-1.8-0.9-3.1-1.6-3.7-2.1c-0.5-0.4-0.7-0.8-0.7-1.1c0-0.3,0.2-0.6,0.5-0.9c0.3-0.3,0.7-0.4,1.2-0.5c0.5-0.1,1.2,0,2,0.2
				c0.9,0.2,2.2,0.7,4,1.6C303.1,150.8,304.4,151.5,305,152z"/>
			<path class="st2" d="M332.6,134.8l-15.7-7.4l-2.1,1.7c0.7,0.7,0.9,1.5,0.8,2.5c-0.1,1-0.4,1.8-0.8,2.5l2.7,1.3
				c0.8-1.3,1.2-2.5,1.1-3.8l11.3,5.3L332.6,134.8z"/>
			<path class="st2" d="M324,123.8c0.4,1.3,2.1,2.7,5,4c3,1.4,5.5,2.1,7.5,2c2-0.1,3.6-0.7,5-1.7c1.3-1.1,1.8-2.1,1.5-3.2
				c-0.4-1.3-2.1-2.7-5.1-4c-3-1.4-5.5-2-7.7-1.9c-1.8,0.1-3.4,0.7-4.7,1.7C324.2,121.6,323.7,122.7,324,123.8z M328.2,123.6
				c-0.5-0.4-0.7-0.7-0.7-1c0-0.3,0.2-0.6,0.5-0.8c0.3-0.3,0.7-0.4,1.2-0.5c0.5-0.1,1.1,0,2,0.2c0.8,0.2,2.2,0.7,4,1.6
				c1.8,0.9,3,1.5,3.6,2c0.5,0.4,0.7,0.7,0.7,1c0,0.3-0.2,0.6-0.5,0.8c-0.3,0.3-0.7,0.4-1.2,0.5c-0.5,0.1-1.1,0-2-0.2
				c-0.8-0.2-2.2-0.7-4-1.6C330,124.8,328.8,124.1,328.2,123.6z"/>
			<path class="st2" d="M342.6,139.5c-1.8,0.1-3.4,0.7-4.7,1.7c-1.3,1.1-1.8,2.2-1.5,3.3c0.4,1.3,2.1,2.7,5.1,4.1
				c3,1.4,5.6,2.1,7.6,2c2-0.1,3.7-0.7,5-1.8c1.3-1.1,1.8-2.2,1.5-3.3c-0.4-1.3-2.1-2.7-5.1-4.1C347.4,140,344.8,139.3,342.6,139.5z
				 M351.3,145.7c0.5,0.4,0.7,0.7,0.7,1.1c0,0.3-0.2,0.6-0.5,0.9c-0.3,0.3-0.7,0.4-1.2,0.5c-0.5,0.1-1.1,0-2-0.2
				c-0.9-0.2-2.2-0.7-4.1-1.6c-1.9-0.9-3.1-1.6-3.7-2.1c-0.5-0.4-0.7-0.7-0.7-1.1c0-0.3,0.2-0.6,0.5-0.9c0.3-0.3,0.7-0.4,1.2-0.5
				c0.5-0.1,1.1,0,2,0.2c0.9,0.2,2.2,0.7,4.1,1.6C349.5,144.5,350.7,145.2,351.3,145.7z"/>
			<path class="st2" d="M327.9,178.2c-1.4,0.1-2.6,0.5-3.6,1.3c-1,0.8-1.4,1.7-1.1,2.5c0.3,1,1.6,2.1,3.8,3.2
				c2.3,1.1,4.2,1.6,5.7,1.5c1.5-0.1,2.8-0.5,3.8-1.4c1-0.8,1.4-1.7,1.1-2.5c-0.3-1-1.6-2.1-3.9-3.2
				C331.5,178.6,329.5,178.1,327.9,178.2z M334.4,183c0.4,0.3,0.5,0.6,0.5,0.8c0,0.2-0.1,0.5-0.4,0.7c-0.2,0.2-0.5,0.3-0.9,0.4
				c-0.4,0.1-0.9,0-1.5-0.1c-0.6-0.2-1.7-0.6-3.1-1.2c-1.4-0.7-2.3-1.2-2.8-1.6c-0.4-0.3-0.5-0.6-0.5-0.8c0-0.2,0.1-0.5,0.4-0.7
				c0.2-0.2,0.5-0.3,0.9-0.4c0.4-0.1,0.9,0,1.5,0.1c0.6,0.2,1.7,0.6,3.1,1.2C333.1,182.1,334,182.6,334.4,183z"/>
			<path class="st2" d="M333,174.8c-0.1,0.8-0.3,1.4-0.6,1.9l2.1,1c0.6-1,0.9-2,0.8-2.9l8.6,4.1l2-1.6l-12-5.7l-1.6,1.3
				C332.8,173.4,333.1,174,333,174.8z"/>
			<path class="st2" d="M353.3,169.8c-0.3-1-1.6-2.1-3.9-3.1c-2.3-1.1-4.2-1.6-5.8-1.5c-1.4,0.1-2.6,0.5-3.6,1.3
				c-1,0.8-1.4,1.6-1.1,2.5c0.3,1,1.6,2.1,3.8,3.1c2.3,1.1,4.2,1.6,5.7,1.5c1.5-0.1,2.8-0.5,3.8-1.4
				C353.2,171.4,353.6,170.6,353.3,169.8z M350.2,169.9c0.4,0.3,0.5,0.6,0.5,0.8c0,0.2-0.1,0.5-0.4,0.6c-0.2,0.2-0.5,0.3-0.9,0.4
				c-0.4,0.1-0.9,0-1.5-0.1c-0.6-0.1-1.7-0.6-3.1-1.2c-1.4-0.7-2.3-1.2-2.8-1.6c-0.4-0.3-0.5-0.6-0.5-0.8c0-0.2,0.1-0.5,0.4-0.6
				c0.2-0.2,0.5-0.3,0.9-0.4c0.4-0.1,0.9,0,1.5,0.1c0.6,0.1,1.7,0.6,3.1,1.2C348.8,169,349.7,169.5,350.2,169.9z"/>
			<path class="st2" d="M361.5,164.2l-11.9-5.6l-1.6,1.3c0.5,0.5,0.7,1.2,0.7,1.9c-0.1,0.7-0.2,1.4-0.6,1.9l2.1,1
				c0.6-1,0.9-1.9,0.8-2.9l8.6,4.1L361.5,164.2z"/>
			<path class="st2" d="M366.5,144.9c-1,0.8-1.3,1.6-1.1,2.4c0.3,1,1.6,2,3.8,3.1c2.3,1.1,4.2,1.6,5.7,1.5c1.5-0.1,2.7-0.5,3.7-1.3
				c1-0.8,1.3-1.6,1.1-2.4c-0.3-1-1.6-2-3.9-3.1c-2.2-1-4.2-1.5-5.8-1.4C368.6,143.7,367.5,144.1,366.5,144.9z M376.6,148.3
				c0.4,0.3,0.5,0.6,0.5,0.8c0,0.2-0.1,0.4-0.4,0.6c-0.2,0.2-0.5,0.3-0.9,0.4c-0.4,0.1-0.9,0-1.5-0.1c-0.6-0.1-1.7-0.5-3.1-1.2
				c-1.4-0.7-2.3-1.2-2.8-1.6c-0.4-0.3-0.5-0.6-0.5-0.8c0-0.2,0.1-0.4,0.4-0.6c0.2-0.2,0.5-0.3,0.9-0.4c0.4-0.1,0.9,0,1.5,0.1
				c0.6,0.1,1.7,0.5,3,1.2C375.2,147.4,376.1,147.9,376.6,148.3z"/>
			<path class="st2" d="M371.2,157.9c-1,0.8-1.3,1.6-1.1,2.5c0.3,1,1.6,2,3.9,3.1c2.3,1.1,4.2,1.6,5.7,1.5c1.5-0.1,2.7-0.5,3.7-1.3
				c1-0.8,1.3-1.6,1.1-2.5c-0.3-1-1.6-2-3.9-3.1c-2.3-1.1-4.2-1.5-5.8-1.5C373.4,156.7,372.2,157.1,371.2,157.9z M381.3,161.3
				c0.4,0.3,0.5,0.6,0.5,0.8c0,0.2-0.1,0.4-0.4,0.6c-0.2,0.2-0.5,0.3-0.9,0.4c-0.4,0.1-0.9,0-1.5-0.1c-0.6-0.1-1.7-0.6-3.1-1.2
				c-1.4-0.7-2.3-1.2-2.8-1.6c-0.4-0.3-0.5-0.6-0.5-0.8c0-0.2,0.1-0.4,0.4-0.6c0.2-0.2,0.5-0.3,0.9-0.4c0.4-0.1,0.9,0,1.5,0.1
				c0.6,0.1,1.7,0.5,3.1,1.2C380,160.4,380.9,160.9,381.3,161.3z"/>
			<path class="st2" d="M390,143.9c-1.4,0.1-2.5,0.5-3.5,1.3c-1,0.8-1.3,1.6-1.1,2.4c0.3,1,1.6,2,3.9,3.1c2.3,1.1,4.2,1.6,5.7,1.5
				c1.5-0.1,2.7-0.5,3.7-1.3c1-0.8,1.3-1.6,1-2.4c-0.3-1-1.6-2-3.9-3.1C393.5,144.3,391.6,143.8,390,143.9z M396.6,148.5
				c0.4,0.3,0.5,0.6,0.5,0.8c0,0.2-0.1,0.4-0.4,0.6c-0.2,0.2-0.5,0.3-0.9,0.4c-0.4,0.1-0.9,0-1.5-0.1c-0.6-0.1-1.7-0.5-3.1-1.2
				c-1.4-0.7-2.3-1.2-2.8-1.6c-0.4-0.3-0.5-0.6-0.5-0.8c0-0.2,0.1-0.4,0.4-0.6c0.2-0.2,0.5-0.3,0.9-0.4c0.4-0.1,0.9,0,1.5,0.1
				c0.6,0.1,1.7,0.5,3.1,1.2C395.2,147.6,396.1,148.1,396.6,148.5z"/>
			<path class="st2" d="M339.1,188.3c-0.7,0.6-1,1.2-0.8,1.9c0.2,0.8,1.2,1.5,2.8,2.3c1.7,0.8,3.1,1.2,4.2,1.1c1.1-0.1,2-0.4,2.8-1
				c0.7-0.6,1-1.2,0.8-1.9c-0.2-0.8-1.2-1.5-2.8-2.3c-1.7-0.8-3.1-1.2-4.3-1.1C340.7,187.4,339.9,187.7,339.1,188.3z M346.6,190.9
				c0.3,0.2,0.4,0.4,0.4,0.6c0,0.2-0.1,0.3-0.3,0.5c-0.2,0.1-0.4,0.2-0.7,0.3c-0.3,0.1-0.6,0-1.1-0.1c-0.5-0.1-1.2-0.4-2.3-0.9
				c-1-0.5-1.7-0.9-2.1-1.2c-0.3-0.2-0.4-0.4-0.4-0.6c0-0.2,0.1-0.3,0.3-0.5c0.2-0.1,0.4-0.2,0.7-0.3c0.3-0.1,0.6,0,1.1,0.1
				c0.5,0.1,1.2,0.4,2.3,0.9C345.6,190.2,346.3,190.6,346.6,190.9z"/>
			<path class="st2" d="M345.5,184.9c0,0.6-0.2,1-0.4,1.4l1.5,0.7c0.4-0.7,0.6-1.4,0.6-2.2l6.4,3l1.5-1.2l-8.8-4.2l-1.2,1
				C345.4,183.9,345.5,184.4,345.5,184.9z"/>
			<path class="st2" d="M369.6,176.8c-0.7,0.6-1,1.2-0.8,1.8c0.2,0.8,1.2,1.5,2.9,2.3c1.7,0.8,3.1,1.2,4.2,1.1s2-0.4,2.8-1
				c0.7-0.6,1-1.2,0.8-1.8c-0.2-0.8-1.2-1.5-2.9-2.3c-1.7-0.8-3.1-1.2-4.3-1.1C371.2,175.9,370.3,176.2,369.6,176.8z M377.1,179.4
				c0.3,0.2,0.4,0.4,0.4,0.6c0,0.2-0.1,0.3-0.3,0.5c-0.2,0.1-0.4,0.2-0.7,0.3c-0.3,0.1-0.6,0-1.1-0.1c-0.5-0.1-1.2-0.4-2.3-0.9
				c-1-0.5-1.7-0.9-2.1-1.2c-0.3-0.2-0.4-0.4-0.4-0.6c0-0.2,0.1-0.3,0.3-0.5c0.2-0.1,0.4-0.2,0.7-0.3c0.3,0,0.6,0,1.1,0.1
				c0.5,0.1,1.2,0.4,2.3,0.9C376.1,178.7,376.7,179.1,377.1,179.4z"/>
			<path class="st2" d="M375.9,173.5c0,0.6-0.2,1-0.4,1.4l1.5,0.7c0.4-0.7,0.6-1.4,0.6-2.1l6.4,3l1.4-1.2l-8.9-4.2l-1.2,1
				C375.7,172.5,375.9,172.9,375.9,173.5z"/>
			<path class="st2" d="M387.8,142.7l-11.9-5.5l-1.6,1.3c0.5,0.5,0.7,1.1,0.7,1.9c0,0.7-0.2,1.3-0.5,1.8l2.1,1
				c0.6-1,0.8-1.9,0.8-2.8l8.6,4L387.8,142.7z"/>
			<path class="st2" d="M379.6,153.3c0,0.7-0.2,1.4-0.5,1.9l2.1,1c0.6-1,0.8-1.9,0.8-2.9l8.6,4l1.9-1.6l-12-5.6l-1.6,1.3
				C379.4,152,379.7,152.6,379.6,153.3z"/>
		</g>
		<path class="st3" d="M541,108.4L245.8,361.5c-15.5-8.3-39.7-5.1-54.3,7.2L26.3,279.4c59.7-9.2,126.9-22.5,188.5-41.8
			C334.6,200.2,433,107.4,471,67.5l0.9,0.4l12.7-10.4l11.9,5.2l-12.7,10.4l8,3.5l12.6-10.5l12,5.2l-12.6,10.5l8.1,3.5l12.6-10.6
			l10.2,4.4C523.4,88.8,526.1,101.9,541,108.4z"/>
		<g>
			<polygon class="st2" points="210.6,308.5 82.6,241.4 76.2,246.3 204.3,313.7 210.6,308.5 			"/>
			<polygon class="st2" points="202.6,287 115.5,241.7 109.1,246.6 196.2,292.1 202.6,287 			"/>
			<polygon class="st2" points="222.4,280.2 121.6,228.2 115.3,233.1 216.1,285.3 222.4,280.2 			"/>
			<polygon class="st2" points="214.5,259.3 154.1,228.4 147.8,233.3 208.3,264.4 214.5,259.3 			"/>
		</g>
		<g>
			<polygon class="st2" points="428.6,118.3 319.2,68.7 313.7,72.9 423.2,122.8 428.6,118.3 			"/>
			<polygon class="st2" points="426.8,103.7 342.3,65.6 336.8,69.8 421.5,108.1 426.8,103.7 			"/>
			<polygon class="st2" points="427.9,90.5 362.6,61.3 357.2,65.5 422.6,94.9 427.9,90.5 			"/>
			<polygon class="st2" points="454.8,89.1 357.8,45.9 352.4,50.1 449.6,93.4 454.8,89.1 			"/>
		</g>
	</g>
</g>
</svg>
